PathFileType	4	(X/Y/Z)	C:\Github\BTS_project\Data\sports2d_results\Single_Hop4 Exam_2026-03-06_123833_tvc2_Sports2D\Single_Hop4 Exam_2026-03-06_123833_tvc2_Sports2D_px_person00.trc
DataRate	CameraRate	NumFrames	NumMarkers	Units	OrigDataRate	OrigDataStartFrame	OrigNumFrames
30.0	30.0	4	22	m	30.0	104	278
Frame#	Time	Hip			RHip			RKnee			RAnkle			RBigToe			RSmallToe			RHeel			LHip			LKnee			LAnkle			LBigToe			LSmallToe			LHeel			Neck			Head			Nose			RShoulder			RElbow			RWrist			LShoulder			LElbow			LWrist			
		X1	Y1	Z1	X2	Y2	Z2	X3	Y3	Z3	X4	Y4	Z4	X5	Y5	Z5	X6	Y6	Z6	X7	Y7	Z7	X8	Y8	Z8	X9	Y9	Z9	X10	Y10	Z10	X11	Y11	Z11	X12	Y12	Z12	X13	Y13	Z13	X14	Y14	Z14	X15	Y15	Z15	X16	Y16	Z16	X17	Y17	Z17	X18	Y18	Z18	X19	Y19	Z19	X20	Y20	Z20	X21	Y21	Z21	X22	Y22	Z22
104	3.4791817087845973	441.28990672298676	688.8990190509385	0.0	408.52798395623677	691.0650604906997	0.0	389.06690557855416	802.1324145295736	0.0	397.12527502027183	867.2282195076094	0.0	389.0242729876699	917.6850638149447	0.0	374.06859309087184	908.3833370498146	0.0	403.6455468602832	871.2914928242149	0.0	474.46593942334704	698.6141287987806	0.0	466.0884567925657	821.5851053873488	0.0	446.2175944088417	927.9518080091927	0.0	442.7358657838128	970.8423163467721	0.0	462.82754076282185	966.0961062506267	0.0	436.40126867110916	942.8023492544055	0.0	470.2695703861278	512.7564020565807	0.0	483.17657514743894	435.16351524336744	0.0	478.7526337187467	482.2332422787597	0.0	405.19785963453745	517.8083035027221	0.0	353.13964355066247	570.0512723268798	0.0	372.462015453512	643.6140137819075	0.0	526.1297543906695	533.5741836968713	0.0	575.1788145596951	593.8841344543579	0.0	534.152297340803	652.2490614951422	0.0
105	3.5126353790613725	441.29540131099714	688.5632727534826	0.0	408.51996167552795	690.3561491863338	0.0	389.01757459394713	802.1521349823084	0.0	397.13484166957767	867.7560424177589	0.0	388.5751987228458	918.0319891483103	0.0	373.7433349612902	908.3664507149631	0.0	403.6310609608238	872.0545294701149	0.0	474.92353732819834	698.5502829819118	0.0	466.57298603295146	821.6221092291817	0.0	446.2060493539589	927.829481755109	0.0	442.72706683061097	970.7410217740442	0.0	462.5720069073843	966.3913801702702	0.0	436.40507264781456	942.5916971512875	0.0	469.8083684322678	512.7993984866317	0.0	483.6462008681209	435.6219269641481	0.0	478.7625171631266	482.03903802765	0.0	405.1688991453751	517.7250568453852	0.0	353.25925610604435	569.3431989808228	0.0	372.0199117990656	643.0812066275462	0.0	526.366566769516	533.2651910534107	0.0	575.0445445506986	594.4687364918216	0.0	534.8014525811681	652.3908037732884	0.0
106	3.5460890493381476	441.32128446768945	688.5028331584364	0.0	408.6004551496078	690.5115491950079	0.0	388.98356007485324	802.3114771263982	0.0	397.17334026474373	867.9985691579708	0.0	387.90971749951143	918.4834313544461	0.0	373.2317948599201	908.575507934456	0.0	403.67367276655966	872.7013878113463	0.0	475.42807683839555	699.4586530428053	0.0	466.9837402316191	821.8344521317142	0.0	446.19421787008	927.6047389189497	0.0	442.30128673398207	970.2708528700686	0.0	462.4800574895026	966.7839386470506	0.0	436.39572495371056	942.2763118750854	0.0	469.7160114935848	512.7794362867238	0.0	483.86112002314087	435.23239122858837	0.0	478.80969050933794	481.27884857941865	0.0	404.9032358020874	518.1541838067104	0.0	353.20106914305336	569.512374322815	0.0	371.5157366997908	643.0417583301088	0.0	527.160570416564	533.4119447604737	0.0	574.5567075731966	594.7186652752702	0.0	535.0983831954977	652.4679656846704	0.0
107	3.5795427196149223	441.3195643974056	688.9734595017339	0.0	408.6533411424354	691.1087761277918	0.0	389.1307120549561	802.5385345995869	0.0	397.1657970712824	868.5168463824971	0.0	387.4213793200738	919.1442500927981	0.0	372.80492692921166	909.2370467333302	0.0	403.7313735117456	873.3637758335086	0.0	475.6745937227496	700.3446840802751	0.0	466.8592797940549	822.0719247728266	0.0	446.19963078380965	927.5997143494061	0.0	441.8481626386915	969.8032808524703	0.0	462.5162947453382	967.0706924674671	0.0	436.3899534132606	942.269416066012	0.0	469.90936228390956	512.7859224778396	0.0	483.79361602851554	434.23702729307354	0.0	478.8961347235372	481.2261415255474	0.0	404.41280529944567	519.122898692097	0.0	352.857402081086	570.3249190735211	0.0	371.3343956023767	643.6095471057538	0.0	528.1577381397448	534.2462763346317	0.0	573.8026954788581	594.5795012467375	0.0	534.7701936914187	652.303365377898	0.0
